<svg id="visual" viewBox="0 0 900 600"  xmlns="http://www.w3.org/2000/svg" xmlns:xlink="http://www.w3.org/1999/xlink" version="1.1"><rect x="0" y="0" width="900" height="600" fill="#001220"></rect><defs><linearGradient id="grad1_0" x1="33.3%" y1="0%" x2="100%" y2="100%"><stop offset="20%" stop-color="#001220" stop-opacity="1"></stop><stop offset="80%" stop-color="#001220" stop-opacity="1"></stop></linearGradient></defs><defs><linearGradient id="grad2_0" x1="0%" y1="0%" x2="66.7%" y2="100%"><stop offset="20%" stop-color="#001220" stop-opacity="1"></stop><stop offset="80%" stop-color="#001220" stop-opacity="1"></stop></linearGradient></defs><g transform="translate(900, 0)"><path d="M0 351.5C-18.5 323.9 -36.9 296.3 -57.2 287.4C-77.4 278.4 -99.3 288.2 -117.9 284.6C-136.4 280.9 -151.5 263.9 -167.8 251.1C-184.1 238.3 -201.7 229.7 -217.1 217.1C-232.5 204.5 -245.6 188 -256.1 171.1C-266.6 154.2 -274.4 137 -291 120.5C-307.7 104.1 -333.2 88.5 -344.8 68.6C-356.4 48.6 -353.9 24.3 -351.5 0L0 0Z" fill="#D96C06"></path></g><g transform="translate(0, 600)"><path d="M0 -351.5C25.3 -357.2 50.7 -362.9 68.6 -344.8C86.5 -326.7 97 -284.8 108.3 -261.5C119.6 -238.1 131.8 -233.2 158.3 -237C184.8 -240.7 225.6 -253.1 238.3 -238.3C251 -223.5 235.6 -181.7 231.1 -154.4C226.7 -127.2 233 -114.6 245.8 -101.8C258.5 -89 277.5 -75.9 296.2 -58.9C314.9 -41.9 333.2 -21 351.5 0L0 0Z" fill="#D96C06"></path></g></svg>